<svg xmlns="http://www.w3.org/2000/svg" width="40" height="40" viewBox="0 0 40 40">
  <g id="logo" transform="translate(-35.8 -34.5)">
    <path id="Path_1" data-name="Path 1" d="M55.8,34.5a19.96,19.96,0,1,0,14.154,5.846A20,20,0,0,0,55.8,34.5Z" transform="translate(0)" fill="#494547"/>
    <path id="Path_2" data-name="Path 2" d="M66.656,58.236c-1.145,3.758-2.289,7.516-3.357,11.274a2.953,2.953,0,0,1-2.365,2.147,2.215,2.215,0,0,1-1.221-.077c-3.815-1.15-7.63-2.3-11.445-3.528A2.868,2.868,0,0,1,46.59,66.6a2.651,2.651,0,0,1-.305-1.841,3.336,3.336,0,0,1,.076-.383c2.289-7.516,4.578-15.108,6.791-22.624A3.085,3.085,0,0,1,55.974,39.6a3.23,3.23,0,0,1,.839.153c1.831.537,3.662,1.074,5.494,1.687,1.907.614,3.891,1.15,5.8,1.764a2.946,2.946,0,0,1,2.136,2.684,3,3,0,0,1-.153,1.15C68.945,50.72,67.8,54.478,66.656,58.236Zm-14.8-4.525c-.763,2.531-1.526,4.985-2.289,7.516,0,.077-.076.23-.076.307a.783.783,0,0,0,.458.92c3.739,1.15,7.554,2.3,11.292,3.451a.485.485,0,0,0,.458,0,.809.809,0,0,0,.458-.537c1.526-5.138,3.128-10.353,4.654-15.492v-.46a.756.756,0,0,0-.534-.537c-3.739-1.15-7.4-2.224-11.14-3.374h-.382a.856.856,0,0,0-.61.537c-.687,2.531-1.526,5.138-2.289,7.669Zm1.221,12.731a1.832,1.832,0,1,0,2.289-1.227,1.772,1.772,0,0,0-2.289,1.227Zm8.317-21.4a14.185,14.185,0,0,1,1.679.537c.076,0,.153,0,.153.077.153,0,.229,0,.305-.153.153-.307.076-.46-.229-.614h-.076c-1.145-.307-2.213-.69-3.357-1a.279.279,0,0,1-.229-.077c-.153,0-.229,0-.305.153-.153.307-.076.537.229.614h.076a9.713,9.713,0,0,1,1.755.46Z" transform="translate(-2.308 -1.128)" fill="#fff"/>
  </g>
</svg>
